<svg width="26" height="24" viewBox="0 0 26 24" fill="none" xmlns="http://www.w3.org/2000/svg">
<g id="Filter">
<path id="Vector" d="M1.56883 5.25003H1.68021C1.85143 5.89322 2.24189 6.46353 2.78992 6.87086C3.33795 7.27819 4.0123 7.49933 4.70644 7.49933C5.40058 7.49933 6.07493 7.27819 6.62296 6.87086C7.17099 6.46353 7.56146 5.89322 7.73267 5.25003H23.5321C23.7402 5.25003 23.9397 5.17101 24.0868 5.03036C24.2339 4.88971 24.3165 4.69894 24.3165 4.50003C24.3165 4.30112 24.2339 4.11035 24.0868 3.9697C23.9397 3.82905 23.7402 3.75003 23.5321 3.75003H7.73267C7.56146 3.10684 7.17099 2.53653 6.62296 2.1292C6.07493 1.72187 5.40058 1.50073 4.70644 1.50073C4.0123 1.50073 3.33795 1.72187 2.78992 2.1292C2.24189 2.53653 1.85143 3.10684 1.68021 3.75003H1.56883C1.36079 3.75003 1.16127 3.82905 1.01417 3.9697C0.867066 4.11035 0.784424 4.30112 0.784424 4.50003C0.784424 4.69894 0.867066 4.88971 1.01417 5.03036C1.16127 5.17101 1.36079 5.25003 1.56883 5.25003ZM4.70644 3.00003C5.01672 3.00003 5.32004 3.088 5.57802 3.25283C5.83601 3.41765 6.03709 3.65192 6.15583 3.92601C6.27457 4.20009 6.30564 4.50169 6.24511 4.79267C6.18457 5.08364 6.03516 5.35091 5.81576 5.56069C5.59635 5.77047 5.31682 5.91333 5.0125 5.97121C4.70818 6.02909 4.39275 5.99938 4.10609 5.88585C3.81942 5.77232 3.57441 5.58006 3.40203 5.33339C3.22964 5.08671 3.13763 4.7967 3.13763 4.50003C3.13763 4.10221 3.30292 3.72068 3.59713 3.43937C3.89134 3.15807 4.29037 3.00003 4.70644 3.00003ZM23.5321 11.25H23.4207C23.2495 10.6068 22.8591 10.0365 22.311 9.6292C21.763 9.22187 21.0887 9.00073 20.3945 9.00073C19.7004 9.00073 19.026 9.22187 18.478 9.6292C17.93 10.0365 17.5395 10.6068 17.3683 11.25H1.56883C1.36079 11.25 1.16127 11.329 1.01417 11.4697C0.867066 11.6104 0.784424 11.8011 0.784424 12C0.784424 12.1989 0.867066 12.3897 1.01417 12.5304C1.16127 12.671 1.36079 12.75 1.56883 12.75H17.3683C17.5395 13.3932 17.93 13.9635 18.478 14.3709C19.026 14.7782 19.7004 14.9993 20.3945 14.9993C21.0887 14.9993 21.763 14.7782 22.311 14.3709C22.8591 13.9635 23.2495 13.3932 23.4207 12.75H23.5321C23.7402 12.75 23.9397 12.671 24.0868 12.5304C24.2339 12.3897 24.3165 12.1989 24.3165 12C24.3165 11.8011 24.2339 11.6104 24.0868 11.4697C23.9397 11.329 23.7402 11.25 23.5321 11.25ZM20.3945 13.5C20.0842 13.5 19.7809 13.4121 19.5229 13.2472C19.2649 13.0824 19.0639 12.8481 18.9451 12.5741C18.8264 12.3 18.7953 11.9984 18.8559 11.7074C18.9164 11.4164 19.0658 11.1491 19.2852 10.9394C19.5046 10.7296 19.7841 10.5867 20.0885 10.5289C20.3928 10.471 20.7082 10.5007 20.9949 10.6142C21.2815 10.7277 21.5265 10.92 21.6989 11.1667C21.8713 11.4133 21.9633 11.7034 21.9633 12C21.9633 12.3979 21.798 12.7794 21.5038 13.0607C21.2096 13.342 20.8106 13.5 20.3945 13.5ZM23.5321 18.75H15.5767C15.4055 18.1068 15.015 17.5365 14.467 17.1292C13.919 16.7219 13.2446 16.5007 12.5505 16.5007C11.8563 16.5007 11.182 16.7219 10.634 17.1292C10.0859 17.5365 9.69546 18.1068 9.52425 18.75H1.56883C1.36079 18.75 1.16127 18.829 1.01417 18.9697C0.867066 19.1104 0.784424 19.3011 0.784424 19.5C0.784424 19.6989 0.867066 19.8897 1.01417 20.0304C1.16127 20.171 1.36079 20.25 1.56883 20.25H9.52425C9.69546 20.8932 10.0859 21.4635 10.634 21.8709C11.182 22.2782 11.8563 22.4993 12.5505 22.4993C13.2446 22.4993 13.919 22.2782 14.467 21.8709C15.015 21.4635 15.4055 20.8932 15.5767 20.25H23.5321C23.7402 20.25 23.9397 20.171 24.0868 20.0304C24.2339 19.8897 24.3165 19.6989 24.3165 19.5C24.3165 19.3011 24.2339 19.1104 24.0868 18.9697C23.9397 18.829 23.7402 18.75 23.5321 18.75ZM12.5505 21C12.2402 21 11.9369 20.9121 11.6789 20.7472C11.4209 20.5824 11.2198 20.3481 11.1011 20.0741C10.9824 19.8 10.9513 19.4984 11.0118 19.2074C11.0723 18.9164 11.2218 18.6492 11.4412 18.4394C11.6606 18.2296 11.9401 18.0867 12.2444 18.0289C12.5487 17.971 12.8642 18.0007 13.1508 18.1142C13.4375 18.2277 13.6825 18.42 13.8549 18.6667C14.0273 18.9133 14.1193 19.2034 14.1193 19.5C14.1193 19.8979 13.954 20.2794 13.6598 20.5607C13.3656 20.842 12.9666 21 12.5505 21Z" fill="#DDDDDD"/>
</g>
</svg>
